<svg width="25" height="24" viewBox="0 0 25 24" fill="none" xmlns="http://www.w3.org/2000/svg">
<path d="M9.6665 3L6.6665 6" stroke="#F2F2F2" stroke-width="1.5" stroke-miterlimit="10" stroke-linecap="round" stroke-linejoin="round"/>
<path d="M15.6665 3L18.6665 6" stroke="#F2F2F2" stroke-width="1.5" stroke-miterlimit="10" stroke-linecap="round" stroke-linejoin="round"/>
<path d="M3.6665 7.99888C3.6665 6.14992 4.5575 6 5.6645 6H19.6685C20.7755 6 21.6665 6.14992 21.6665 7.99888C21.6665 10.1477 20.7755 9.99775 19.6685 9.99775H5.6645C4.5575 9.99775 3.6665 10.1477 3.6665 7.99888Z" stroke="#F2F2F2" stroke-width="1.5"/>
<path d="M10.4268 14V17.55" stroke="#F2F2F2" stroke-width="1.5" stroke-linecap="round"/>
<path d="M15.0264 14V17.55" stroke="#F2F2F2" stroke-width="1.5" stroke-linecap="round"/>
<path d="M4.6665 10L5.99356 17.92C6.29474 19.6983 7.01944 21 9.71121 21H15.3865C18.3136 21 18.7465 19.7533 19.0853 18.03L20.6665 10" stroke="#F2F2F2" stroke-width="1.5" stroke-linecap="round"/>
</svg>
