<svg width="22" height="20" viewBox="0 0 22 20" fill="none" xmlns="http://www.w3.org/2000/svg">
<path d="M19.25 10C19.25 11.2426 18.2426 12.25 17 12.25C15.7574 12.25 14.75 11.2426 14.75 10C14.75 8.75736 15.7574 7.75 17 7.75C18.2426 7.75 19.25 8.75736 19.25 10Z" stroke="#FF725E" stroke-width="1.5" stroke-miterlimit="10" stroke-linecap="round" stroke-linejoin="round"/>
<path d="M2.75 17C2.75 18.2426 3.75736 19.25 5 19.25C6.24264 19.25 7.25 18.2426 7.25 17C7.25 15.7574 6.24264 14.75 5 14.75C3.75736 14.75 2.75 15.7574 2.75 17Z" stroke="#FF725E" stroke-width="1.5" stroke-miterlimit="10" stroke-linecap="round" stroke-linejoin="round"/>
<path d="M2.75 3C2.75 4.24264 3.75736 5.25 5 5.25C6.24264 5.25 7.25 4.24264 7.25 3C7.25 1.75736 6.24264 0.75 5 0.75C3.75736 0.75 2.75 1.75736 2.75 3Z" stroke="#FF725E" stroke-width="1.5" stroke-miterlimit="10" stroke-linecap="round" stroke-linejoin="round"/>
<path d="M1 10H14" stroke="#FF725E" stroke-width="1.5" stroke-linecap="round"/>
<path d="M21 17H8" stroke="#FF725E" stroke-width="1.5" stroke-linecap="round"/>
<path d="M21 3H8" stroke="#FF725E" stroke-width="1.5" stroke-linecap="round"/>
<path d="M20 10H21" stroke="#FF725E" stroke-width="1.5" stroke-linecap="round"/>
<path d="M2 17H1" stroke="#FF725E" stroke-width="1.5" stroke-linecap="round"/>
<path d="M2 3H1" stroke="#FF725E" stroke-width="1.5" stroke-linecap="round"/>
</svg>
