<svg width="25" height="24" viewBox="0 0 25 24" fill="none" xmlns="http://www.w3.org/2000/svg">
<path d="M7.5835 5C7.5835 6.24264 6.57614 7.25 5.3335 7.25C4.09086 7.25 3.0835 6.24264 3.0835 5C3.0835 3.75736 4.09086 2.75 5.3335 2.75C6.57614 2.75 7.5835 3.75736 7.5835 5Z" stroke="#F2F2F2" stroke-width="1.5" stroke-miterlimit="10" stroke-linecap="round" stroke-linejoin="round"/>
<path d="M7.5835 12C7.5835 13.2426 6.57614 14.25 5.3335 14.25C4.09086 14.25 3.0835 13.2426 3.0835 12C3.0835 10.7574 4.09086 9.75 5.3335 9.75C6.57614 9.75 7.5835 10.7574 7.5835 12Z" stroke="#F2F2F2" stroke-width="1.5" stroke-miterlimit="10" stroke-linecap="round" stroke-linejoin="round"/>
<path d="M7.5835 19C7.5835 20.2426 6.57614 21.25 5.3335 21.25C4.09086 21.25 3.0835 20.2426 3.0835 19C3.0835 17.7574 4.09086 16.75 5.3335 16.75C6.57614 16.75 7.5835 17.7574 7.5835 19Z" stroke="#F2F2F2" stroke-width="1.5" stroke-miterlimit="10" stroke-linecap="round" stroke-linejoin="round"/>
<path d="M11.8335 5H21.3335" stroke="#F2F2F2" stroke-width="1.5" stroke-linecap="round"/>
<path d="M11.8335 12H21.3335" stroke="#F2F2F2" stroke-width="1.5" stroke-linecap="round"/>
<path d="M11.8335 19H21.3335" stroke="#F2F2F2" stroke-width="1.5" stroke-linecap="round"/>
</svg>
