<svg width="16" height="20" viewBox="0 0 16 20" fill="none" xmlns="http://www.w3.org/2000/svg">
<path d="M12.25 5C12.25 7.34721 10.3472 9.25 8 9.25C5.65279 9.25 3.75 7.34721 3.75 5C3.75 2.65279 5.65279 0.75 8 0.75C10.3472 0.75 12.25 2.65279 12.25 5Z" stroke="#F2F2F2" stroke-width="1.5" stroke-linecap="round" stroke-linejoin="round"/>
<path d="M0.75 19C0.75 15.3809 3.84541 12.75 7.99998 12.75C12.1546 12.75 15.25 15.3809 15.25 19C15.25 19.0146 15.2465 19.0421 15.2308 19.0798C15.2152 19.1175 15.1912 19.156 15.1617 19.1892C15.1318 19.2228 15.1046 19.2417 15.0889 19.25H0.911098C0.895359 19.2417 0.868198 19.2228 0.838335 19.1892C0.808829 19.156 0.784794 19.1175 0.769151 19.0798C0.753516 19.0421 0.75 19.0146 0.75 19ZM15.081 19.2536C15.081 19.2536 15.0812 19.2536 15.0815 19.2535L15.081 19.2536Z" stroke="#F2F2F2" stroke-width="1.5"/>
</svg>
